<svg xmlns="http://www.w3.org/2000/svg" xmlns:xlink="http://www.w3.org/1999/xlink" width="58" height="58" version="1.1" viewBox="-8 0 58 58"><title/><desc/><g id="Page-1" fill="none" fill-rule="evenodd" stroke="none" stroke-width="1"><g id="008---Book"><path id="Path" fill="#763636" d="M19.342,57.973 L17.158,57.221 C17.0555695,57.186028 16.9444305,57.186028 16.842,57.221 L14.658,57.973 C14.502887,58.0247526 14.3322694,57.9973884 14.2011203,57.8997242 C14.0699712,57.80206 13.9948647,57.6464381 14,57.483 L14,50 L20,50 L20,57.483 C20.0051353,57.6464381 19.9300288,57.80206 19.7988797,57.8997242 C19.6677306,57.9973884 19.497113,58.0247526 19.342,57.973 Z"/><path id="Path" fill="#766458" d="M1,0 L36,0 C39.3137085,6.66133815e-16 42,2.6862915 42,6 L42,46 C42,49.3137085 39.3137085,52 36,52 L1,52 C0.44771525,52 0,51.5522847 0,51 L0,1 C0,0.44771525 0.44771525,0 1,0 Z"/><path id="Path" fill="#63544A" d="M8,0 L8,52 L1,52 C0.44771525,52 0,51.5522847 0,51 L0,1 C0,0.44771525 0.44771525,0 1,0 L8,0 Z"/><path id="Path" fill="#8A7567" d="M38,16 C37.4477153,16 37,15.5522847 37,15 L37,13 C37,12.4477153 37.4477153,12 38,12 C38.5522847,12 39,12.4477153 39,13 L39,15 C39,15.5522847 38.5522847,16 38,16 Z"/><path id="Path" fill="#8A7567" d="M38,10 C37.4477153,10 37,9.55228475 37,9 L37,6 C37,5.44771525 36.5522847,5 36,5 L32,5 C31.4477153,5 31,4.55228475 31,4 C31,3.44771525 31.4477153,3 32,3 L36,3 C37.6568542,3 39,4.34314575 39,6 L39,9 C39,9.55228475 38.5522847,10 38,10 Z"/><path id="Path" fill="#766458" d="M4,47 C3.44771525,47 3,46.5522847 3,46 L3,34 C3,33.4477153 3.44771525,33 4,33 C4.55228475,33 5,33.4477153 5,34 L5,46 C5,46.5522847 4.55228475,47 4,47 Z"/><path id="Path" fill="#766458" d="M4,31 C3.44771525,31 3,30.5522847 3,30 L3,28 C3,27.4477153 3.44771525,27 4,27 C4.55228475,27 5,27.4477153 5,28 L5,30 C5,30.5522847 4.55228475,31 4,31 Z"/><rect id="Rectangle" width="34" height="12" x="8" y="30" fill="#F9E6A1"/><path id="Path" fill="#B8AA77" d="M31,35 L15,35 C14.4477153,35 14,34.5522847 14,34 C14,33.4477153 14.4477153,33 15,33 L31,33 C31.5522847,33 32,33.4477153 32,34 C32,34.5522847 31.5522847,35 31,35 Z"/><path id="Path" fill="#B8AA77" d="M24,39 L15,39 C14.4477153,39 14,38.5522847 14,38 C14,37.4477153 14.4477153,37 15,37 L24,37 C24.5522847,37 25,37.4477153 25,38 C25,38.5522847 24.5522847,39 24,39 Z"/><path id="Path" fill="#B8AA77" d="M29,39 L28,39 C27.4477153,39 27,38.5522847 27,38 C27,37.4477153 27.4477153,37 28,37 L29,37 C29.5522847,37 30,37.4477153 30,38 C30,38.5522847 29.5522847,39 29,39 Z"/></g></g></svg>