<svg xmlns="http://www.w3.org/2000/svg" xmlns:xlink="http://www.w3.org/1999/xlink" width="58" height="58" version="1.1" viewBox="0 -15 58 58"><title/><desc/><g id="Page-1" fill="none" fill-rule="evenodd" stroke="none" stroke-width="1"><g id="010---Bow-Tie"><path id="Path" fill="#2A344D" d="M25,18 L2.89,27.451 C2.19905508,27.7620092 1.39270521,27.664857 0.795404108,27.198635 C0.198103004,26.732413 -0.09193256,25.9737839 0.042,25.228 C1.56698775,17.8203381 1.56698775,10.1796619 0.042,2.772 C-0.09193256,2.02621607 0.198103004,1.26758704 0.795404108,0.801365002 C1.39270521,0.335142968 2.19905508,0.237990822 2.89,0.549 L25,10 L33,10 L55.11,0.549 C55.8009449,0.237990822 56.6072948,0.335142968 57.2045959,0.801365002 C57.801897,1.26758704 58.0919326,2.02621607 57.958,2.772 C56.4330122,10.1796619 56.4330122,17.8203381 57.958,25.228 C58.0919326,25.9737839 57.801897,26.732413 57.2045959,27.198635 C56.6072948,27.664857 55.8009449,27.7620092 55.11,27.451 L33,18 L25,18 Z"/><path id="Path" fill="#3C4A6E" d="M33,10 L33,18 C33,20.209139 31.209139,22 29,22 C26.790861,22 25,20.209139 25,18 L25,10 C25,7.790861 26.790861,6 29,6 C31.209139,6 33,7.790861 33,10 Z"/><path id="Path" fill="#20283B" d="M25,11.98 L25,14 C24.9329612,13.9978125 24.8661445,13.9911308 24.8,13.98 L19.8,12.98 C19.4498797,12.9085469 19.164475,12.6557345 19.0512951,12.3167949 C18.9381152,11.9778553 19.0143547,11.6042814 19.2512951,11.3367949 C19.4882355,11.0693084 19.8498797,10.9485469 20.2,11.02 L25,11.98 Z"/><path id="Path" fill="#20283B" d="M24.71,14.04 C24.8040766,14.0120269 24.9018635,13.998539 25,14 L25,16.05 L15.29,18.96 C14.7598067,19.1201625 14.2001626,18.8201933 14.0400001,18.29 C13.8798375,17.7598066 14.1798067,17.2001626 14.71,17.04 L24.71,14.04 Z"/><path id="Path" fill="#20283B" d="M16,11.667 C15.8925571,11.6667552 15.7858558,11.6491968 15.684,11.615 L13.684,10.949 C13.1593295,10.774478 12.8754781,10.2076705 13.05,9.68300001 C13.224522,9.15832951 13.7913295,8.87447804 14.316,9.049 L16.316,9.716 C16.7850221,9.86844961 17.0728689,10.3400766 16.9940177,10.8269083 C16.9151664,11.31374 16.4931644,11.670394 16,11.667 Z"/><path id="Path" fill="#20283B" d="M43.96,18.29 C43.7943495,18.8156728 43.2394672,19.1130897 42.71,18.96 L33,16.05 L33,14 C33.0981365,13.998539 33.1959234,14.0120269 33.29,14.04 L43.29,17.04 C43.5450492,17.1162536 43.7591681,17.2910531 43.8849275,17.5256788 C44.0106869,17.7603046 44.0377061,18.0353896 43.96,18.29 Z"/><path id="Path" fill="#20283B" d="M33.2,13.98 C33.1338555,13.9911308 33.0670388,13.9978125 33,14 L33,11.98 L37.8,11.02 C38.3412391,10.9095431 38.8695431,11.2587609 38.98,11.8 C39.0904569,12.3412391 38.7412391,12.8695431 38.2,12.98 L33.2,13.98 Z"/><path id="Path" fill="#20283B" d="M42,11.667 C41.5092173,11.6673557 41.0907126,11.3115013 41.0121655,10.8270447 C40.9336184,10.3425882 41.218247,9.87273169 41.684,9.718 L43.684,9.051 C44.2086705,8.87647802 44.775478,9.16032949 44.95,9.685 C45.124522,10.2096705 44.8406705,10.776478 44.316,10.951 L42.316,11.617 C42.2140326,11.6505176 42.1073341,11.6674002 42,11.667 Z"/></g></g></svg>