<svg xmlns="http://www.w3.org/2000/svg" xmlns:xlink="http://www.w3.org/1999/xlink" width="58" height="58" version="1.1" viewBox="0 -10.5 58 58"><title/><desc/><g id="Page-1" fill="none" fill-rule="evenodd" stroke="none" stroke-width="1"><g id="011---Camera"><path id="Path" fill="#63544A" d="M34.586,0.586 C34.2110145,0.21090125 33.7023896,0.000113274811 33.172,0 L24.828,0 C24.2976104,0.000113274811 23.7889855,0.21090125 23.414,0.586 L19,5 C19,6.1045695 19.8954305,7 21,7 L37,7 C38.1045695,7 39,6.1045695 39,5 L34.586,0.586 Z"/><rect id="Rectangle" width="58" height="32" x="0" y="5" fill="#766458" rx="3"/><path id="Path" fill="#EDE4BB" d="M6,14 C4.34314575,14 3,12.6568542 3,11 C3,9.34314575 4.34314575,8 6,8 L13,8 C14.6568542,8 16,9.34314575 16,11 C16,12.6568542 14.6568542,14 13,14 L6,14 Z"/><rect id="Rectangle" width="11" height="4" x="4" y="9" fill="#FFF8D6" rx="2"/><circle id="Oval" cx="36" cy="21" r="12" fill="#4D4139"/><circle id="Oval" cx="36" cy="21" r="10" fill="#63544A"/><circle id="Oval" cx="36" cy="21" r="8" fill="#4AEDFF"/><circle id="Oval" cx="36" cy="21" r="2" fill="#3FC7D6"/><path id="Path" fill="#8A7567" d="M4,21 C3.44771525,21 3,20.5522847 3,20 L3,18 C3,17.4477153 3.44771525,17 4,17 C4.55228475,17 5,17.4477153 5,18 L5,20 C5,20.5522847 4.55228475,21 4,21 Z"/><path id="Path" fill="#8A7567" d="M4,33 C3.44771525,33 3,32.5522847 3,32 L3,24 C3,23.4477153 3.44771525,23 4,23 C4.55228475,23 5,23.4477153 5,24 L5,32 C5,32.5522847 4.55228475,33 4,33 Z"/><path id="Path" fill="#B3F7FF" d="M32,22 C31.4477153,22 31,21.5522847 31,21 C31.0033061,18.2399468 33.2399468,16.0033061 36,16 C36.5522847,16 37,16.4477153 37,17 C37,17.5522847 36.5522847,18 36,18 C34.3431458,18 33,19.3431458 33,21 C33,21.5522847 32.5522847,22 32,22 Z"/><path id="Path" fill="#B3F7FF" d="M36,26 C35.1220485,25.9999195 34.259671,25.7681124 33.5,25.328 C33.0477474,25.040504 32.9025198,24.4476032 33.1707068,23.9836398 C33.4388937,23.5196763 34.0251496,23.3495983 34.5,23.598 C34.9557946,23.8619482 35.4732961,24.0006386 36,24 C36.5522847,24 37,24.4477153 37,25 C37,25.5522847 36.5522847,26 36,26 Z"/></g></g></svg>