<svg xmlns="http://www.w3.org/2000/svg" xmlns:xlink="http://www.w3.org/1999/xlink" width="58" height="58" version="1.1" viewBox="0 -9 58 58"><title/><desc/><g id="Page-1" fill="none" fill-rule="evenodd" stroke="none" stroke-width="1"><g id="004---Cassette"><rect id="Rectangle" width="58" height="40" x="0" y="0" fill="#F2DF94" rx="2"/><rect id="Rectangle" width="22" height="44" x="18" y="-2" fill="#FAE7A0" rx="2" transform="translate(29.000000, 20.000000) rotate(90.000000) translate(-29.000000, -20.000000)"/><rect id="Rectangle" width="20" height="42" x="19" y="-1" fill="#FFF8DB" rx="1" transform="translate(29.000000, 20.000000) rotate(90.000000) translate(-29.000000, -20.000000)"/><rect id="Rectangle" width="10" height="34" x="24" y="3" fill="#F9E6A1" rx="1" transform="translate(29.000000, 20.000000) rotate(90.000000) translate(-29.000000, -20.000000)"/><path id="Path" fill="#DBC885" d="M26,20 C26.0024124,20.3326381 25.9688845,20.6645636 25.9,20.99 L25.9,21.01 C25.4268075,23.340324 23.3778816,25.0150126 21,25.0150126 C18.6221184,25.0150126 16.5731925,23.340324 16.1,21.01 L16.1,20.99 C16.0311155,20.6645636 15.9975876,20.3326381 16,20 C16,17.2385763 18.2385763,15 21,15 C23.7614237,15 26,17.2385763 26,20 Z"/><path id="Path" fill="#DBC885" d="M42,20 C42.0024124,20.3326381 41.9688845,20.6645636 41.9,20.99 L41.9,21.01 C41.4268075,23.340324 39.3778816,25.0150126 37,25.0150126 C34.6221184,25.0150126 32.5731925,23.340324 32.1,21.01 L32.1,20.99 C32.0311155,20.6645636 31.9975876,20.3326381 32,20 C32.0000001,17.2385763 34.2385763,15.0000001 37,15.0000001 C39.7614237,15.0000001 41.9999999,17.2385763 42,20 Z"/><path id="Path" fill="#EBD68F" d="M25.9,20.99 L25.9,21.01 C25.4268075,23.340324 23.3778816,25.0150126 21,25.0150126 C18.6221184,25.0150126 16.5731925,23.340324 16.1,21.01 L16.1,20.99 C16.5731925,18.659676 18.6221184,16.9849874 21,16.9849874 C23.3778816,16.9849874 25.4268075,18.659676 25.9,20.99 Z"/><path id="Path" fill="#EBD68F" d="M41.9,20.99 L41.9,21.01 C41.4268075,23.340324 39.3778816,25.0150126 37,25.0150126 C34.6221184,25.0150126 32.5731925,23.340324 32.1,21.01 L32.1,20.99 C32.5731925,18.659676 34.6221184,16.9849874 37,16.9849874 C39.3778816,16.9849874 41.4268075,18.659676 41.9,20.99 Z"/><path id="Path" fill="#FFF8DB" d="M45,40 L43.456,35.368 C43.1838561,34.5509145 42.4192148,33.9997926 41.558,34 L16.442,34 C15.5800492,33.9989307 14.814376,34.5502154 14.542,35.368 L13,40 L45,40 Z"/><path id="Path" stroke="#EBD68F" stroke-linecap="round" stroke-linejoin="round" stroke-width="2" d="M18,37 L20,37"/><path id="Path" stroke="#EBD68F" stroke-linecap="round" stroke-linejoin="round" stroke-width="2" d="M37,37 L39,37"/><path id="Path" fill="#FFF1B8" d="M4,12 C3.44771525,12 3,11.5522847 3,11 L3,9 C3,8.44771525 3.44771525,8 4,8 C4.55228475,8 5,8.44771525 5,9 L5,11 C5,11.5522847 4.55228475,12 4,12 Z"/><path id="Path" fill="#FFF1B8" d="M4,36 C3.44771525,36 3,35.5522847 3,35 L3,16 C3,15.4477153 3.44771525,15 4,15 C4.55228475,15 5,15.4477153 5,16 L5,35 C5,35.5522847 4.55228475,36 4,36 Z"/></g></g></svg>