<?xml version="1.0" standalone="no"?><!DOCTYPE svg PUBLIC "-//W3C//DTD SVG 1.1//EN" "http://www.w3.org/Graphics/SVG/1.1/DTD/svg11.dtd"><svg t="1657677525786" class="icon" viewBox="0 0 1025 1024" version="1.1" xmlns="http://www.w3.org/2000/svg" p-id="3379" width="128.125" height="128" xmlns:xlink="http://www.w3.org/1999/xlink"><defs><style type="text/css">@font-face { font-family: feedback-iconfont; src: url("//at.alicdn.com/t/font_1031158_u69w8yhxdu.woff2?t=1630033759944") format("woff2"), url("//at.alicdn.com/t/font_1031158_u69w8yhxdu.woff?t=1630033759944") format("woff"), url("//at.alicdn.com/t/font_1031158_u69w8yhxdu.ttf?t=1630033759944") format("truetype"); }
</style></defs><path d="M519.892286 959.885714c-17.485714 0-34.4-0.342857-50.4-1.142857-63.885714-1.142857-124.8-6.285714-171.428572-14.628571-44.571429-7.885714-92.228571-18.857143-138.285714-45.257143-50.857143-29.028571-90.742857-72-122.057143-131.314286C-1.479143 693.485714-1.936286 602.057143 1.149429 539.771429c3.428571-69.714286 20.685714-140.114286 48.457142-198.171429 30.514286-63.314286 69.028571-116.914286 114.514286-159.2 39.085714-36.342857 83.542857-64.457143 132-83.771429 36.457143-14.514286 75.2-24 115.2-28.114285 27.314286-4.228571 62.742857-6.4 102.628572-6.4 71.2 0 168.342857 7.657143 227.657142 29.142857 42.971429 15.542857 107.542857 53.257143 142.4 92.457143 43.2 48.571429 76.571429 102.057143 99.314286 158.971428 22.742857 57.485714 36.914286 126.857143 39.657143 195.657143 1.828571 43.771429 0.914286 81.142857-2.514286 114.171429-4.571429 42.628571-13.371429 78.628571-27.2 110.057143-26.057143 59.657143-60.457143 102.742857-105.142857 131.657142-40.914286 26.514286-84.342857 36.8-121.485714 43.428572-56.457143 10.057143-154.857143 20.228571-246.742857 20.228571 0.114286 0 0.114286 0 0 0z" fill="#25467A" p-id="3380"></path><path d="M975.092286 542.171429c-2.628571-63.657143-15.542857-127.428571-36.228572-179.771429-23.085714-57.828571-56.457143-106.514286-90.628571-144.8-28.685714-32.228571-85.942857-65.828571-122.971429-79.2-76-27.542857-242.628571-32.685714-315.428571-18.857143C325.720857 135.428571 397.835143 907.428571 471.092286 910.857143c102.628571 4.685714 223.314286-7.085714 287.314285-18.514286 70.742857-12.571429 142.285714-35.542857 190.971429-147.085714 25.142857-57.485714 28.685714-130.514286 25.714286-203.085714z" fill="#9CCC65" p-id="3381"></path><path d="M103.435143 564.685714c4.571429-190.857143 169.942857-391.771429 368.114286-386.971428s353.828571 213.371429 349.257142 404.342857c-4.571429 190.857143-167.542857 291.885714-365.714285 287.085714S99.092286 755.542857 103.435143 564.685714z" fill="#FDEFBA" p-id="3382"></path><path d="M893.035143 542.171429c-3.085714-63.657143-18.742857-127.428571-43.885714-179.771429-27.885714-57.828571-62.742857-106.514286-104-144.8-34.742857-32.228571-74.171429-57.257143-117.028572-74.285714-49.142857-19.542857-101.942857-28.571429-157.142857-26.971429-55.2-1.6-108 7.428571-157.142857 26.971429-42.857143 17.028571-82.4 42.057143-117.028572 74.285714-41.142857 38.285714-76.114286 86.971429-104 144.8-25.142857 52.342857-40.685714 116.114286-43.885714 179.771429-3.542857 72.571429 0.685714 145.6 31.085714 203.085714 58.857143 111.542857 141.485714 136.571429 226.285715 151.657143 47.771429 8.571429 107.428571 12.914286 164.571428 13.942857 57.142857-1.028571 116.685714-5.371429 164.571429-13.942857 84.914286-15.085714 167.428571-40.114286 226.285714-151.657143 30.628571-57.485714 34.857143-130.514286 31.314286-203.085714zM780.006571 702.857143c-18.857143 35.657143-40.342857 59.542857-67.771428 75.2-1.942857 1.142857-3.885714 2.171429-5.828572 3.2 17.142857-30.857143 28.914286-66.057143 34.285715-103.885714 5.142857-36.114286 4.457143-73.485714-2.057143-111.085715-6.742857-38.857143-19.428571-77.028571-37.942857-113.485714L617.835143 493.714286c27.885714 55.2 38.971429 115.885714 31.085714 170.857143-7.2 50.971429-30.057143 93.942857-64.228571 121.028571-31.2 24.685714-59.085714 31.085714-82.4 32.8-7.771429 0.342857-15.542857 0.571429-23.542857 0.8-2.742857 0-5.371429 0.114286-7.885715 0.114286-56.228571-1.028571-108.8-5.485714-148.114285-12.457143-32.114286-5.714286-65.6-13.142857-93.028572-28.8-27.428571-15.657143-48.914286-39.542857-67.771428-75.2-23.314286-44.114286-22.971429-110.4-20.685715-156.342857 2.514286-51.657143 14.971429-103.2 34.971429-144.914286 22.971429-47.542857 51.085714-87.085714 83.771428-117.485714 26.285714-24.342857 55.885714-43.2 88.114286-56 34.4-13.714286 71.542857-20.571429 110.4-20.571429 3.2 0 6.4 0 9.6 0.114286l2.628572 0.114286 2.628571-0.114286c3.2-0.114286 6.4-0.114286 9.6-0.114286 38.971429 0 76.114286 6.971429 110.285714 20.571429 32.342857 12.8 61.942857 31.657143 88.228572 56.114285 32.685714 30.4 60.914286 69.942857 83.771428 117.485715 20 41.828571 32.457143 93.257143 34.971429 144.914285 2.628571 45.942857 2.971429 112.228571-20.228572 156.228572z" fill="#7CB342" p-id="3383"></path><path d="M385.378 657.942857c-35.314286 0-64-28.685714-64-64 0-7.085714 5.714286-12.8 12.8-12.8s12.8 5.714286 12.8 12.8c0 21.257143 17.142857 38.4 38.4 38.4s38.4-17.142857 38.4-38.4c0-7.085714 5.714286-12.8 12.8-12.8s12.8 5.714286 12.8 12.8c0 35.314286-28.685714 64-64 64zM218.978 491.542857c0 21.257143 17.142857 38.4 38.4 38.4s38.4-17.142857 38.4-38.4-17.142857-38.4-38.4-38.4c-21.142857 0-38.4 17.142857-38.4 38.4zM474.978 491.542857c0 21.257143 17.142857 38.4 38.4 38.4s38.4-17.142857 38.4-38.4-17.142857-38.4-38.4-38.4c-21.142857 0-38.4 17.142857-38.4 38.4z" fill="#25467A" p-id="3384"></path><path d="M206.178 555.542857h-51.2c-14.171429 0-25.6 11.428571-25.6 25.6s11.428571 25.6 25.6 25.6h51.2c14.171429 0 25.6-11.428571 25.6-25.6s-11.428571-25.6-25.6-25.6z m409.6 0H564.578c-14.171429 0-25.6 11.428571-25.6 25.6s11.428571 25.6 25.6 25.6h51.2c14.171429 0 25.6-11.428571 25.6-25.6 0-14.171429-11.428571-25.6-25.6-25.6z" fill="#FF9E80" p-id="3385"></path></svg>