<?xml version="1.0" ?><svg width="60px" height="60px" viewBox="0 -2.5 60 60" version="1.1" xmlns="http://www.w3.org/2000/svg" xmlns:xlink="http://www.w3.org/1999/xlink"><title/><desc/><g fill="none" fill-rule="evenodd" id="Page-1" stroke="none" stroke-width="1"><g id="001---Headphones"><path d="M45.62,13.04 L45.254,13.354 C43.8471491,14.557421 41.7975019,14.6356645 40.303,13.543 C37.3365005,11.2895081 33.7250609,10.0476047 30,10 C26.2759688,10.0482449 22.6656778,11.2901149 19.7,13.543 C18.2054981,14.6356645 16.1558509,14.557421 14.749,13.354 L14.383,13.04 C18.0590237,8.08182844 23.8287604,5.11143187 30,5 C36.1723011,5.11050694 41.9433372,8.08100182 45.62,13.04 Z" fill="#1D2436" id="Path"/><path d="M20.93,50.25 C21.1577501,51.4218508 20.8486942,52.6341082 20.0876992,53.5538858 C19.3267042,54.4736635 18.1937697,55.0042698 17,55 L13.01,55 C8.58918861,55.00221 5.00331257,51.4208107 5,47 L5,37 C5.00331257,32.5791893 8.58918861,28.99779 13.01,29 L17,29 C18.1937697,28.9957302 19.3267042,29.5263365 20.0876992,30.4461142 C20.8486942,31.3658918 21.1577501,32.5781492 20.93,33.75 C20.3831631,36.4674399 20.0819486,39.2285723 20.03,42 C20.0819486,44.7714277 20.3831631,47.5325601 20.93,50.25 Z" fill="#2A344D" id="Path"/><path d="M55,37 L55,47 C54.9966874,51.4208107 51.4108114,55.00221 46.99,55 L43,55 C41.8062303,55.0042698 40.6732958,54.4736635 39.9123008,53.5538858 C39.1513058,52.6341082 38.8422499,51.4218508 39.07,50.25 C39.6168369,47.5325601 39.9180514,44.7714277 39.97,42 C39.9180514,39.2285723 39.6168369,36.4674399 39.07,33.75 C38.8422499,32.5781492 39.1513058,31.3658918 39.9123008,30.4461142 C40.6732958,29.5263365 41.8062303,28.9957302 43,29 L46.99,29 C51.4108114,28.99779 54.9966874,32.5791893 55,37 Z" fill="#2A344D" id="Path"/><path d="M56.88,23.02 C56.6169246,23.307298 56.3012319,23.5415216 55.95,23.71 C55.6790897,23.8402107 55.3884964,23.9246855 55.09,23.96 C53.7875585,24.1526847 52.5124224,23.4704462 51.95,22.28 C50.3706538,18.8682044 48.2310594,15.745005 45.62,13.04 C41.18,8.52 35.74,6 30,6 C24.26,6 18.81,8.52 14.38,13.04 C11.7689406,15.745005 9.6293462,18.8682044 8.05,22.28 C7.55551171,23.3339823 6.49420412,24.0051032 5.33,24 C5.17904618,24.001584 5.02830768,23.988185 4.88,23.96 C4.59212983,23.9198155 4.31217521,23.8354918 4.05,23.71 C3.68658764,23.5388765 3.36299081,23.2936242 3.1,22.99 C2.29895932,22.0941801 2.11368793,20.8051642 2.63,19.72 C8.47,7.37 18.7,0 30,0 C41.3,0 51.53,7.37 57.38,19.72 C57.8931999,20.820304 57.6961086,22.1211064 56.88,23.02 Z" fill="#2A344D" id="Path"/><path d="M5,39.96 L5,41.9600003 L4.99,41.96 C3.65973576,41.960511 2.39156004,41.3972811 1.5,40.41 C0.537069148,39.3539779 0.0586079076,37.9439671 0.18,36.52 C0.53550708,31.8984859 1.5178408,27.3467821 3.1,22.99 C3.36299081,23.2936242 3.68658764,23.5388765 4.05,23.71 C4.31217521,23.8354918 4.59212983,23.9198155 4.88,23.96 C3.41916355,28.0617928 2.50791015,32.3389674 2.17,36.68 C2.09541805,37.5499061 2.38511768,38.4117625 2.97,39.06 C3.48758418,39.6296463 4.22034085,39.956122 4.99,39.96 L5,39.96 Z" fill="#1D2436" id="Path"/><path d="M59.83,37.59 C59.9408309,39.0132106 59.4554955,40.4185103 58.49,41.47 C57.5986271,42.4492693 56.334193,43.0051843 55.01,43 L55,43.0000359 L55,41 C55.7711969,40.9995245 56.5071263,40.6768756 57.03,40.11 C57.6133527,39.4643701 57.9061669,38.6076176 57.84,37.74 C57.5041963,33.0496048 56.5802913,28.4200004 55.09,23.96 C55.3884964,23.9246855 55.6790897,23.8402107 55.95,23.71 C56.3012319,23.5415216 56.6169246,23.307298 56.88,23.02 C58.4878879,27.7290338 59.4794597,32.62639 59.83,37.59 Z" fill="#1D2436" id="Path"/><path d="M9,46 C8.44771525,46 8,45.5522847 8,45 L8,38 C8,37.4477153 8.44771525,37 9,37 C9.55228475,37 10,37.4477153 10,38 L10,45 C10,45.5522847 9.55228475,46 9,46 Z" fill="#394769" id="Path"/><path d="M10.361,51 C10.118402,50.9996839 9.88419105,50.9111884 9.702,50.751 C9.29329159,50.3929604 8.94602283,49.97036 8.674,49.5 C8.47279638,49.1900413 8.45893049,48.794387 8.63794184,48.4711034 C8.81695319,48.1478199 9.15965893,47.9496095 9.52914605,47.9556585 C9.89863316,47.9617076 10.234667,48.1710299 10.403,48.5 C10.5671999,48.782274 10.7762691,49.0359266 11.022,49.251 C11.3330841,49.5261859 11.4416867,49.9650147 11.2948563,50.3535266 C11.1480259,50.7420385 10.7763314,50.9993485 10.361,51 Z" fill="#394769" id="Path"/><path d="M12,51.871 C11.9149812,51.8710891 11.8302982,51.8603357 11.748,51.839 C10.9896942,51.6408211 10.2883137,51.2678702 9.7,50.75 C9.42197207,50.5166077 9.29225597,50.150877 9.36109236,49.79446 C9.42992875,49.438043 9.68650614,49.1469189 10.0314489,49.0338437 C10.3763916,48.9207684 10.7555227,49.0035018 11.022,49.25 C11.3750517,49.5606546 11.7959606,49.7842946 12.251,49.903 C12.7382811,50.0293257 13.0557011,50.4981711 12.9920144,50.9975158 C12.9283277,51.4968605 12.5033896,51.8710251 12,51.871 Z" fill="#394769" id="Path"/><path d="M43.842,46 C43.814,46 43.787,46 43.76,46 C43.4955499,45.978591 43.2504472,45.8529682 43.0786489,45.6507863 C42.9068506,45.4486044 42.8224402,45.1864378 42.844,44.922 C42.928,43.9 42.97,42.922 42.97,42.003 C42.9598001,40.3721812 42.8502639,38.7434981 42.642,37.126 C42.5906878,36.5872162 42.9773372,36.1053885 43.5144459,36.0387913 C44.0515546,35.9721942 44.5441717,36.3449999 44.626,36.88 C44.844984,38.5780533 44.9598653,40.2879146 44.97,42 C44.97,42.97 44.925,44.007 44.838,45.081 C44.7958313,45.5998921 44.3626026,45.9996282 43.842,46 Z" fill="#394769" id="Path"/><path d="M43,52 C42.9365763,51.9999123 42.8733001,51.993886 42.811,51.982 C42.2691788,51.878072 41.9138856,51.3549766 42.017,50.813 C42.08,50.479 42.141,50.151 42.198,49.825 C42.3001178,49.2868462 42.8161773,48.9309988 43.3554802,49.0268627 C43.8947831,49.1227266 44.2565971,49.6346206 44.167,50.175 C44.107,50.509 44.047,50.847 43.981,51.188 C43.8908821,51.6588052 43.4793522,51.9994396 43,52 Z" fill="#394769" id="Path"/></g></g></svg>