<svg xmlns="http://www.w3.org/2000/svg" xmlns:xlink="http://www.w3.org/1999/xlink" width="58" height="58" version="1.1" viewBox="0 0 58 58"><title/><desc/><g id="Page-1" fill="none" fill-rule="evenodd" stroke="none" stroke-width="1"><g id="012---Record"><circle id="Oval" cx="29" cy="29" r="29" fill="#2A344D"/><path id="Path" fill="#323E5C" d="M50,30 C49.4477153,30 49,29.5522847 49,29 C49.001111,27.3954646 48.8090627,25.7966296 48.428,24.238 C48.3270624,23.8857106 48.4269072,23.506429 48.6882195,23.2495008 C48.9495317,22.9925726 49.3304482,22.8991587 49.6809796,23.0060418 C50.0315109,23.1129249 50.2955005,23.4029819 50.369,23.762 C50.7891741,25.4762783 51.0010376,27.2349801 51,29 C51,29.5522847 50.5522847,30 50,30 Z"/><path id="Path" fill="#323E5C" d="M47.973,21 C47.5865343,21.0008386 47.2341797,20.7789137 47.068,20.43 C43.7361085,13.4699186 36.7164358,9.02920248 29,9 C28.4477153,9 28,8.55228475 28,8 C28,7.44771525 28.4477153,7 29,7 C37.4873022,7.03206834 45.2085812,11.9154131 48.875,19.57 C49.0223495,19.8793717 49.00103,20.2426478 48.8185047,20.5326603 C48.6359793,20.8226728 48.3176686,20.9990313 47.975,21 L47.973,21 Z"/><path id="Path" fill="#323E5C" d="M21.992,54 C21.8972506,53.9998926 21.8029895,53.9864267 21.712,53.96 C11.7169523,51.0513386 4.42507198,42.454666 3.186,32.119 C3.14348539,31.7642353 3.29346501,31.4137379 3.57944298,31.1995368 C3.86542094,30.9853357 4.24395041,30.9399731 4.57244298,31.0805368 C4.90093555,31.2211004 5.12948539,31.5262353 5.172,31.881 C6.31516808,41.4211504 13.0460542,49.3561172 22.272,52.04 C22.7497444,52.1793421 23.0523279,52.6487726 22.9819495,53.1414214 C22.9115711,53.6340701 22.4896504,54 21.992,54 Z"/><path id="Path" fill="#323E5C" d="M29,55 C27.9575509,55.0003717 26.9160167,54.9382603 25.881,54.814 C25.3325813,54.7482781 24.9412781,54.2504187 25.007,53.702 C25.0727219,53.1535813 25.5705813,52.7622781 26.119,52.828 C28.0328406,53.0570035 29.9671594,53.0570035 31.881,52.828 C32.4294188,52.7622781 32.9272781,53.1535813 32.993,53.702 C33.0587219,54.2504188 32.6674187,54.7482781 32.119,54.814 C31.0839833,54.9382603 30.0424491,55.0003717 29,55 Z"/><path id="Path" fill="#323E5C" d="M54,30 C53.4477153,30 53,29.5522847 53,29 C53.0285493,19.8319042 47.8050842,11.4571052 39.559,7.45 C39.065443,7.20529169 38.8627546,6.60749954 39.105699,6.11307188 C39.3486434,5.61864423 39.945708,5.41382261 40.441,5.655 C49.3734692,9.99616675 55.031417,19.0685475 55,29 C55,29.2652165 54.8946432,29.5195704 54.7071068,29.7071068 C54.5195704,29.8946432 54.2652165,30 54,30 Z"/><path id="Path" fill="#323E5C" d="M33,5.319 C32.9464439,5.31894704 32.8929649,5.31493611 32.84,5.307 C31.5701526,5.10311327 30.2861112,5.00045684 29,5 C28.4477153,5 28,4.55228475 28,4 C28,3.44771525 28.4477153,3 29,3 C30.3929655,2.99965912 31.783729,3.11067943 33.159,3.332 C33.6729272,3.41568163 34.0366358,3.8797302 33.9951024,4.39876663 C33.9535691,4.91780305 33.5206948,5.31810895 33,5.319 Z"/><circle id="Oval" cx="29" cy="29" r="12" fill="#212942"/><circle id="Oval" cx="29" cy="29" r="10" fill="#D3D6DE"/><circle id="Oval" cx="29" cy="29" r="3" fill="#B5B8C2"/></g></g></svg>