<svg xmlns="http://www.w3.org/2000/svg" xmlns:xlink="http://www.w3.org/1999/xlink" width="58" height="58" version="1.1" viewBox="-10 0 58 58"><title/><desc/><g id="Page-1" fill="none" fill-rule="evenodd" stroke="none" stroke-width="1"><g id="006---Ipod"><rect id="Rectangle" width="38" height="58" x="0" y="0" fill="#2A344D" rx="3"/><rect id="Rectangle" width="22" height="32" x="8" y="-2" fill="#40CEDE" rx="3" transform="translate(19.000000, 14.000000) rotate(90.000000) translate(-19.000000, -14.000000)"/><rect id="Rectangle" width="18" height="28" x="10" y="0" fill="#4AEDFF" rx="1" transform="translate(19.000000, 14.000000) rotate(90.000000) translate(-19.000000, -14.000000)"/><circle id="Oval" cx="19" cy="41" r="13" fill="#1C2338"/><circle id="Oval" cx="19" cy="41" r="5" fill="#2A344D"/><path id="Path" fill="#202840" d="M10.937,38 C10.5910255,37.999297 10.2699932,37.8198106 10.088203,37.5254448 C9.90641281,37.2310791 9.88969434,36.8636589 10.044,36.554 C11.7242883,33.1447687 15.1991944,30.9898303 19,31 C19.5522847,31 20,31.4477153 20,32 C20,32.5522847 19.5522847,33 19,33 C15.9582721,32.9927394 13.1777068,34.7176443 11.833,37.446 C11.6636944,37.7857629 11.3166091,38.000367 10.937,38 Z"/><path id="Path" fill="#202840" d="M10.223,44 C9.75663827,43.9995118 9.3525321,43.6767248 9.249,43.222 C9.08339636,42.4929367 8.99987693,41.7476348 9,41 C9,40.4477153 9.44771525,40 10,40 C10.5522847,40 11,40.4477153 11,41 C11.0000487,41.5982764 11.0671338,42.1946637 11.2,42.778 C11.267616,43.0749736 11.1962042,43.3865739 11.0060096,43.6244631 C10.815815,43.8623523 10.5275733,44.0005951 10.223,44 Z"/><path id="Path" fill="#85F4FF" d="M9,11 C8.44771525,11 8,10.5522847 8,10 L8,9 C8,8.44771525 8.44771525,8 9,8 C9.55228475,8 10,8.44771525 10,9 L10,10 C10,10.5522847 9.55228475,11 9,11 Z"/><path id="Path" fill="#85F4FF" d="M9,20 C8.44771525,20 8,19.5522847 8,19 L8,14 C8,13.4477153 8.44771525,13 9,13 C9.55228475,13 10,13.4477153 10,14 L10,19 C10,19.5522847 9.55228475,20 9,20 Z"/></g></g></svg>