<?xml version="1.0" ?><svg width="58px" height="58px" viewBox="0 -7.5 58 58" version="1.1" xmlns="http://www.w3.org/2000/svg" xmlns:xlink="http://www.w3.org/1999/xlink"><title/><desc/><g fill="none" fill-rule="evenodd" id="Page-1" stroke="none" stroke-width="1"><g id="009---Pipe"><path d="M48.55,7.58 C51.3478459,5.17944433 54.5467371,3.29057528 58,2 L53,0 L46.49,3.77 L42.29,6.2 L37.4,9.03 C35.1423609,10.3376868 33.0648516,11.9341418 31.22,13.779 L26.61,18.39 C25.9958762,19.0040178 25.1458104,19.3217876 24.2795005,19.2611824 C23.4131906,19.2005771 22.6156494,18.7675441 22.093,18.074 L19.15,14.174 L0,25 L4,37.91 C6.99,43.2 15.71,43.9 21,40.91 C23.3523645,39.5650551 25.3668262,37.7010794 26.89,35.46 C31.56,30.23 34.92,23.85 38,19 C39.908529,16.0162482 42.2242052,13.3135041 44.88,10.97 L48.55,7.58 Z" fill="#766458" id="Path"/><path d="M12.04,23.94 C4.2,28.37 0,25 0,25 L19.15,14.17 C19.15,14.17 19.87,19.51 12.04,23.94 Z" fill="#63544A" id="Path"/><path d="M47.63,11.3 C46.7305908,11.7542329 45.6464055,11.6241307 44.88,10.97 C44.6261835,10.7577159 44.4185772,10.4956554 44.27,10.2 L42.46,6.63 C42.3888003,6.49284699 42.3318364,6.34876174 42.29,6.2 C41.9531381,5.04497482 42.4867754,3.81382726 43.56,3.27 C44.5401018,2.77255478 45.7303382,2.97566679 46.49,3.77 C46.6663242,3.94416575 46.8117321,4.14706054 46.92,4.37 L48.55,7.58 L48.73,7.93 C49.3513257,9.16477804 48.8601502,10.6695613 47.63,11.3 Z" fill="#EBD996" id="Path"/><path d="M6.357,33 C5.9198909,33.0004636 5.53313256,32.7169758 5.402,32.3 L5.093,31.3 C4.97369464,30.955928 5.05086624,30.5742007 5.29445794,30.3034936 C5.53804964,30.0327864 5.90954571,29.9159025 6.26425556,29.9983658 C6.61896541,30.0808292 6.90080377,30.3496011 7,30.7 L7.309,31.7 C7.47236946,32.2274221 7.17736338,32.7874412 6.65,32.951 C6.55527195,32.9816431 6.45654393,32.9981539 6.357,33 Z" fill="#8A7567" id="Path"/><path d="M13.851,39.667 C11.3742953,39.6581673 9.02950765,38.5495224 7.451,36.641 C7.2185993,36.3671738 7.15089053,35.9897498 7.27361487,35.6522152 C7.39633921,35.3146806 7.69064579,35.0688818 8.04464656,35.0082656 C8.39864732,34.9476493 8.75796656,35.0815264 8.986,35.359 C10.1616557,36.7947734 11.9105112,37.6391999 13.766,37.667 C14.199,37.667 14.552,37.65 14.9,37.617 C15.1648703,37.5868885 15.4306009,37.6657536 15.6361613,37.8354824 C15.8417218,38.0052112 15.9694462,38.2512172 15.99,38.517 C16.041609,39.0660683 15.6389619,39.5532713 15.09,39.606 C14.684,39.646 14.267,39.667 13.851,39.667 Z" fill="#8A7567" id="Path"/></g></g></svg>